<svg width="600" height="800" viewBox="0 0 600 800" fill="none" xmlns="http://www.w3.org/2000/svg">
  <rect width="600" height="800" rx="36" fill="#1a1a24"/>
  <rect x="24" y="24" width="552" height="752" rx="28" stroke="rgba(255,255,255,0.10)" stroke-width="2"/>
  <circle cx="300" cy="285" r="92" fill="#111118" stroke="#00e5a0" stroke-opacity="0.35" stroke-width="6" stroke-dasharray="12 12"/>
  <path d="M300 304C331.48 304 357 278.48 357 247C357 215.52 331.48 190 300 190C268.52 190 243 215.52 243 247C243 278.48 268.52 304 300 304Z" fill="#6b6a80"/>
  <path d="M190 470C190 405.935 241.935 354 306 354H294C358.065 354 410 405.935 410 470V490H190V470Z" fill="#6b6a80"/>
  <text x="300" y="585" text-anchor="middle" fill="#f0eff8" font-family="Arial, sans-serif" font-size="28" font-weight="700">Replace with your photo</text>
  <text x="300" y="625" text-anchor="middle" fill="#a09fba" font-family="Arial, sans-serif" font-size="18">src/assets/images/profile-placeholder.svg</text>
</svg>
